HIERARCHY
ROOT Hips
{
	OFFSET -44.602631 92.727097 387.457703
	CHANNELS 6 Xposition Yposition Zposition Zrotation Yrotation Xrotation 
	JOINT LeftUpLeg
	{
		OFFSET 0.103457 1.857834 10.548504
		CHANNELS 3 Zrotation Yrotation Xrotation
		JOINT LeftLeg
		{
			OFFSET 43.499996 -0.000046 0.000000
			CHANNELS 3 Zrotation Yrotation Xrotation
			JOINT LeftFoot
			{
				OFFSET 42.372192 0.000027 0.000002
				CHANNELS 3 Zrotation Yrotation Xrotation
				JOINT LeftToe
				{
					OFFSET 17.299994 -0.000003 -0.000001
					CHANNELS 3 Zrotation Yrotation Xrotation
					End Site
					{
						OFFSET 0.000000 0.000000 0.000000
					}
				}
			}
		}
	}
	JOINT RightUpLeg
	{
		OFFSET 0.103456 1.857832 -10.548504
		CHANNELS 3 Zrotation Yrotation Xrotation
		JOINT RightLeg
		{
			OFFSET 43.500046 -0.000011 0.000010
			CHANNELS 3 Zrotation Yrotation Xrotation
			JOINT RightFoot
			{
				OFFSET 42.372261 -0.000034 0.000021
				CHANNELS 3 Zrotation Yrotation Xrotation
				JOINT RightToe
				{
					OFFSET 17.300011 0.000001 0.000002
					CHANNELS 3 Zrotation Yrotation Xrotation
					End Site
					{
						OFFSET 0.000000 0.000000 0.000000
					}
				}
			}
		}
	}
	JOINT Spine
	{
		OFFSET 6.901965 -2.603721 0.000001
		CHANNELS 3 Zrotation Yrotation Xrotation
		JOINT Spine1
		{
			OFFSET 12.588100 0.000000 -0.000000
			CHANNELS 3 Zrotation Yrotation Xrotation
			JOINT Spine2
			{
				OFFSET 12.343206 0.000005 0.000000
				CHANNELS 3 Zrotation Yrotation Xrotation
				JOINT Neck
				{
					OFFSET 25.832893 -0.000008 0.000000
					CHANNELS 3 Zrotation Yrotation Xrotation
					JOINT Head
					{
						OFFSET 11.766617 0.000009 0.000001
						CHANNELS 3 Zrotation Yrotation Xrotation
						End Site
						{
							OFFSET 0.000000 0.000000 0.000000
						}
					}
				}
				JOINT LeftShoulder
				{
					OFFSET 19.745899 -1.480394 6.000106
					CHANNELS 3 Zrotation Yrotation Xrotation
					JOINT LeftArm
					{
						OFFSET 11.284122 -0.000030 -0.000014
						CHANNELS 3 Zrotation Yrotation Xrotation
						JOINT LeftForeArm
						{
							OFFSET 33.000050 0.000020 0.000016
							CHANNELS 3 Zrotation Yrotation Xrotation
							JOINT LeftHand
							{
								OFFSET 25.200014 -0.000003 0.000011
								CHANNELS 3 Zrotation Yrotation Xrotation
								End Site
								{
									OFFSET 0.000000 0.000000 0.000000
								}
							}
						}
					}
				}
				JOINT RightShoulder
				{
					OFFSET 19.746094 -1.480381 -6.000073
					CHANNELS 3 Zrotation Yrotation Xrotation
					JOINT RightArm
					{
						OFFSET 11.284140 -0.000016 -0.000006
						CHANNELS 3 Zrotation Yrotation Xrotation
						JOINT RightForeArm
						{
							OFFSET 33.000088 0.000015 0.000002
							CHANNELS 3 Zrotation Yrotation Xrotation
							JOINT RightHand
							{
								OFFSET 25.199776 0.000133 0.000416
								CHANNELS 3 Zrotation Yrotation Xrotation
								End Site
								{
									OFFSET 0.000000 0.000000 0.000000
								}
							}
						}
					}
				}
			}
		}
	}
}
MOTION
Frames: 7
Frame Time: 0.033333
31.546490 51.689861 -103.186096 92.675135 -68.493677 118.821454 -160.083966 -24.003197 144.370392 -25.905239 -2.076224 8.612091 66.458055 -12.351946 -17.151935 21.454562 0.003098 -0.000007 100.607122 29.285201 -159.796456 -129.531300 -4.190660 7.176767 91.258451 -5.711347 -6.752384 21.454565 -0.003108 -0.000015 10.506500 0.935356 -3.275577 10.940813 2.176363 -6.448884 10.624650 2.137596 -6.461823 35.159792 15.990465 -0.204305 -5.316015 -13.884753 2.746067 83.180455 -73.170095 96.553542 -69.064674 -7.116275 5.070475 -22.823234 -19.279681 1.380371 11.599373 -59.201436 -5.170457 5.169614 68.559021 -173.161019 -13.590118 19.915828 36.689471 -22.023484 18.154897 -1.323191 11.180819 18.305402 3.301079 
31.482670 51.621010 -103.614700 92.078204 -68.513156 119.269706 -159.980406 -24.062797 144.501941 -25.959970 -1.965539 8.506179 66.218035 -12.362053 -17.257730 21.454557 0.003093 -0.000008 100.052723 29.073902 -159.947717 -129.830312 -4.211720 6.847634 92.101365 -5.303236 -5.877485 21.454557 -0.003110 -0.000024 10.498443 1.013107 -3.226373 10.921799 2.326329 -6.343691 10.605542 2.288187 -6.357540 35.149827 15.876162 -0.272302 -5.506370 -13.803217 2.680514 82.830046 -73.383880 96.879273 -69.084577 -7.474709 5.113821 -23.177099 -19.390381 1.392507 12.331731 -59.107986 -5.772274 5.961482 68.794881 -172.392581 -13.692203 19.893336 35.726988 -21.814417 18.127725 -1.318609 10.490418 19.625507 2.231721 
31.425079 51.479698 -104.038399 91.511605 -68.428161 119.697207 -159.840005 -24.173704 144.542417 -25.988834 -1.871612 8.360628 65.759818 -12.372870 -17.350105 21.454557 0.003095 0.000004 99.528144 28.894893 -160.213958 -130.115787 -4.186769 6.384943 92.804007 -4.857069 -5.229177 21.454550 -0.003102 -0.000012 10.474015 1.075537 -3.201254 10.870421 2.447151 -6.288410 10.554087 2.409361 -6.302983 34.946444 15.799863 -0.295922 -5.642844 -13.746090 2.689282 82.486555 -73.544984 97.203919 -69.066436 -7.673788 5.202534 -23.298964 -19.457471 1.398535 13.059489 -58.731246 -6.530659 6.747928 68.883455 -171.629212 -13.636129 19.829713 35.617370 -21.533428 17.969651 -1.304862 10.691045 20.525555 2.760331 
31.369579 51.345860 -104.433701 91.075334 -68.317594 119.941223 -159.784462 -24.190916 144.554820 -25.930892 -1.923589 8.093348 64.989311 -12.263476 -17.228351 21.454560 0.003099 0.000000 99.112807 28.664600 -160.439327 -130.447898 -4.176860 6.022094 93.250797 -4.512641 -4.672085 21.454555 -0.003105 -0.000015 10.449651 1.114683 -3.189990 10.820031 2.522836 -6.262959 10.503659 2.485180 -6.277991 34.849360 15.797087 -0.300912 -5.927803 -13.772747 2.740279 82.240204 -73.646201 97.437594 -69.014724 -7.848846 5.298486 -23.141497 -19.433440 1.394698 13.694003 -58.507551 -7.531187 6.467093 68.928589 -171.901491 -13.851195 19.873118 35.842770 -20.954402 17.802533 -1.286719 11.113563 20.231099 3.175473 
31.318420 51.224030 -104.846703 90.627028 -68.148001 120.114054 -159.785760 -24.108705 144.676725 -25.814447 -2.033010 7.860919 64.352588 -12.330282 -17.550929 21.454558 0.003094 -0.000000 98.810967 28.343603 -160.597090 -130.812302 -4.176243 5.603203 93.050290 -4.146499 -4.004076 21.454560 -0.003110 -0.000021 10.425194 1.139309 -3.202216 10.769601 2.571809 -6.285739 10.453231 2.533999 -6.301070 34.749342 15.737456 -0.325131 -6.200255 -13.677873 2.738615 82.132376 -73.709107 97.537813 -68.866653 -8.011244 5.319939 -22.770148 -19.336242 1.383173 14.131873 -58.343531 -8.375536 5.857783 68.841142 -172.491400 -14.068233 19.914974 36.162474 -20.324425 17.695862 -1.272015 11.652381 19.543574 4.724033 
31.292660 51.069710 -105.229698 90.154174 -67.927802 120.199718 -159.757879 -23.931197 144.879104 -25.592717 -2.180531 7.714674 63.509544 -12.574937 -18.025074 21.454557 0.003094 0.000006 98.535444 27.940707 -160.719897 -130.981991 -4.170241 5.357282 92.263773 -3.960051 -3.632438 21.454558 -0.003104 -0.000018 10.395556 1.147416 -3.228021 10.709312 2.588703 -6.337277 10.392969 2.550612 -6.352703 34.570722 15.814927 -0.289937 -6.346260 -13.774474 2.844204 82.089831 -73.763625 97.575195 -68.669697 -8.070504 5.174080 -22.290923 -19.186059 1.366906 14.830381 -58.274655 -9.512622 5.599304 68.647458 -172.742615 -13.963537 19.997165 36.476362 -19.851672 17.193068 -1.234642 12.348343 19.678096 5.432430 
31.306641 50.846931 -105.578400 89.577569 -67.642533 120.257624 -159.618884 -23.725905 144.531434 -25.297764 -2.229033 7.872690 62.237244 -13.017780 -18.234534 21.454548 0.003096 0.000004 98.341234 27.445804 -160.740620 -130.914905 -4.111562 5.301645 91.250521 -4.009432 -3.914550 21.454565 -0.003113 -0.000023 10.341836 1.147603 -3.290785 10.600332 2.591869 -6.463928 10.284079 2.553014 -6.479368 34.370041 15.741554 -0.226140 -6.414539 -13.791486 2.958220 82.380954 -73.764021 97.288586 -68.231268 -7.949153 4.891539 -21.751979 -18.987234 1.346958 15.785431 -58.186416 -11.279129 5.457403 68.442006 -172.879205 -14.016907 20.088857 36.704139 -19.433797 16.783494 -1.203938 12.324704 19.442711 4.928110 
